<?xml version="1.0" encoding="UTF-8" standalone="no"?>
<svg
   viewBox="0 0 50 50"
   width="100"
   height="100"
   version="1.1"
   id="svg4"
   sodipodi:docname="google-icon.svg"
   inkscape:version="1.3.2 (091e20ef0f, 2023-11-25)"
   xmlns:inkscape="http://www.inkscape.org/namespaces/inkscape"
   xmlns:sodipodi="http://sodipodi.sourceforge.net/DTD/sodipodi-0.dtd"
   xmlns:xlink="http://www.w3.org/1999/xlink"
   xmlns="http://www.w3.org/2000/svg"
   xmlns:svg="http://www.w3.org/2000/svg">
  <sodipodi:namedview
     id="namedview4"
     pagecolor="#ffffff"
     bordercolor="#000000"
     borderopacity="0.25"
     inkscape:showpageshadow="2"
     inkscape:pageopacity="0.0"
     inkscape:pagecheckerboard="0"
     inkscape:deskcolor="#d1d1d1"
     inkscape:zoom="3.3200873"
     inkscape:cx="32.07747"
     inkscape:cy="31.926871"
     inkscape:window-width="1920"
     inkscape:window-height="968"
     inkscape:window-x="0"
     inkscape:window-y="40"
     inkscape:window-maximized="1"
     inkscape:current-layer="svg4" />
  <defs
     id="defs1">
    <path
       id="A"
       d="M 44.5,20 H 24 v 8.5 H 35.8 C 34.7,33.9 30.1,37 24,37 16.8,37 11,31.2 11,24 c 0,-7.2 5.8,-13 13,-13 3.1,0 5.9,1.1 8.1,2.9 L 38.5,7.5 C 34.6,4.1 29.6,2 24,2 11.8,2 2,11.8 2,24 c 0,12.2 9.8,22 22,22 11,0 21,-8 21,-22 0,-1.3 -0.2,-2.7 -0.5,-4 z" />
  </defs>
  <clipPath
     id="B">
    <use
       xlink:href="#A"
       id="use1" />
  </clipPath>
  <g
     transform="matrix(1.1363636,0,0,1.1363636,-1.7727263,-2.2727313)"
     id="g4">
    <path
       d="M 0,37 V 11 l 17,13 z"
       clip-path="url(#B)"
       fill="#fbbc05"
       id="path1" />
    <path
       d="M 0,11 17,24 24,17.9 48,14 V 0 H 0 Z"
       clip-path="url(#B)"
       fill="#ea4335"
       id="path2" />
    <path
       d="M 0,37 30,14 37.9,15 48,0 V 48 H 0 Z"
       clip-path="url(#B)"
       fill="#34a853"
       id="path3" />
    <path
       d="M 48,48 17,24 13,21 48,11 Z"
       clip-path="url(#B)"
       fill="#4285f4"
       id="path4" />
  </g>
</svg>
